<?xml version="1.0" encoding="utf-8"?>
<!-- Generator: Adobe Illustrator 23.0.2, SVG Export Plug-In . SVG Version: 6.00 Build 0)  -->
<svg version="1.1" id="Layer_1" xmlns="http://www.w3.org/2000/svg" xmlns:xlink="http://www.w3.org/1999/xlink" x="0px" y="0px"
	 viewBox="0 0 24 24" style="enable-background:new 0 0 24 24;" xml:space="preserve">
<g>
	<path d="M21,12.3c0,0,0,0.1,0,0.1c0,0.1-0.1,0.2-0.2,0.3l-6,6C14.5,18.9,14.3,19,14,19s-0.5-0.1-0.7-0.3c-0.4-0.4-0.4-1,0-1.4
		l4.3-4.3H4c-0.5,0-1-0.5-1-1s0.5-1,1-1h13.6l-4.3-4.3c-0.4-0.4-0.4-1,0-1.4c0.4-0.4,1-0.4,1.4,0l6,6c0.1,0.1,0.2,0.2,0.2,0.3
		c0,0,0,0.1,0,0.1C21,11.9,21,12.1,21,12.3z"/>
</g>
</svg>
