<?xml version="1.0" encoding="utf-8"?>
<!-- Generator: Adobe Illustrator 23.0.2, SVG Export Plug-In . SVG Version: 6.00 Build 0)  -->
<svg version="1.1" id="Layer_1" xmlns="http://www.w3.org/2000/svg" xmlns:xlink="http://www.w3.org/1999/xlink" x="0px" y="0px"
	 viewBox="0 0 24 24" style="enable-background:new 0 0 24 24;" xml:space="preserve">
<style type="text/css">
	.st0{fill:#444444;}
</style>
<g>
	<path class="st0" d="M0,0v24h24V0H0z M7.3,22H2v-5.3h5.3V22z M7.3,14.6H2V9.3h5.3V14.6z M7.3,7.3H2V2h5.3V7.3z M14.6,22H9.3v-5.3
		h5.3V22z M14.6,14.6H9.3V9.3h5.3V14.6z M14.6,7.3H9.3V2h5.3V7.3z M22,22h-5.3v-5.3H22V22z M22,14.6h-5.3V9.3H22V14.6z M22,7.3h-5.3
		V2H22V7.3z"/>
</g>
</svg>
