<?xml version="1.0" encoding="utf-8"?>
<!-- Generator: Adobe Illustrator 23.0.2, SVG Export Plug-In . SVG Version: 6.00 Build 0)  -->
<svg version="1.1" id="Layer_1" xmlns="http://www.w3.org/2000/svg" xmlns:xlink="http://www.w3.org/1999/xlink" x="0px" y="0px"
	 viewBox="0 0 24 24" style="enable-background:new 0 0 24 24;" xml:space="preserve">
<g>
	<path d="M21.7,20.3l-4.5-4.5c1.1-1.5,1.8-3.3,1.8-5.3C19,5.8,15.2,2,10.5,2S2,5.8,2,10.5S5.8,19,10.5,19c2,0,3.8-0.7,5.3-1.8
		l4.5,4.5c0.2,0.2,0.5,0.3,0.7,0.3s0.5-0.1,0.7-0.3C22.1,21.3,22.1,20.7,21.7,20.3z M4,10.5C4,6.9,6.9,4,10.5,4S17,6.9,17,10.5
		c0,1.8-0.7,3.4-1.9,4.6c-1.2,1.2-2.8,1.9-4.6,1.9C6.9,17,4,14.1,4,10.5z"/>
</g>
</svg>
