<svg id="Layer_1" data-name="Layer 1" xmlns="http://www.w3.org/2000/svg" viewBox="0 0 594.28 85.34"><title>logo</title><path d="M98.14.73V0H71L53.15,51.45,35.23,0H6.7V.73h.37a7.34,7.34,0,0,1,7.32,7.32V70A14.62,14.62,0,0,1,0,84.6v.74H29.38V84.6A14.51,14.51,0,0,1,15.12,70V7.44l26.94,77.9h0l.12-.25,27.06-78c0,.37.13.61.13,1V77.29a7.37,7.37,0,0,1-7.44,7.31v.74H98.14V84.6a7.33,7.33,0,0,1-7.32-7.31V8.05A7.34,7.34,0,0,1,98.14.73Z"/><path d="M140.44.73V0H104.23V.73a7.34,7.34,0,0,1,7.32,7.32V77.29a7.34,7.34,0,0,1-7.32,7.31v.74h36.21V84.6A7.36,7.36,0,0,1,133,77.29V8.05A7.36,7.36,0,0,1,140.44.73Z"/><path d="M206.93,0h-48.4V23h.73C162.56,10.24,170.6.73,184.38.73V77.29a7.26,7.26,0,0,1-7.32,7.31v.74h36.21V84.6A7.33,7.33,0,0,1,206,77.29V.73c13.77,0,21.82,9.51,25.11,22.31h.73V0Z"/><path d="M294.38,79C283.29,47.3,281.58,42.06,267,0l-25.6,70.71C238.79,77.53,232,83.63,224.9,84.6v.74h29.74V84.6a12.17,12.17,0,0,1-12.31-12.19,13.77,13.77,0,0,1,.61-4l.85-2.19H267.2l3.53,10.24a6.34,6.34,0,0,1-6,8.16v.74h37.55V84.6A8.32,8.32,0,0,1,294.38,79ZM244,65.46l11.71-32.3c5.48,16,7.31,21.09,11.21,32.3Z"/><path d="M364.48,63.76A27.73,27.73,0,0,1,337.54,84.6h-.37V8.05A7.36,7.36,0,0,1,344.61.73V0H308.4V.73a7.34,7.34,0,0,1,7.32,7.32V77.29a7.33,7.33,0,0,1-7.32,7.31v.74h56.81V63.76Z"/><path d="M401.3.73A29.85,29.85,0,0,1,430.19,23h.73V0H371.31V.73a7.33,7.33,0,0,1,7.31,7.32V77.29a7.33,7.33,0,0,1-7.31,7.31v.74h59.61V62.42h-.73A29.74,29.74,0,0,1,401.3,84.6h-1.22V43A19.24,19.24,0,0,1,418.61,57.3h.73V28h-.73A19.23,19.23,0,0,1,400.08,42.3V.73Z"/><path d="M514.91.73V0H485.53V.73a14.63,14.63,0,0,1,14.39,14.63V78.75L484.56,34.62,472.61,0H443.72V.73h.37a7.33,7.33,0,0,1,7.31,7.32V70A14.62,14.62,0,0,1,437,84.6v.74h29.38V84.6A14.51,14.51,0,0,1,452.13,70V6.58l27.31,78.76h28.77V84.6H508a7.33,7.33,0,0,1-7.32-7.31V15.36A14.52,14.52,0,0,1,514.91.73Z"/><path d="M569.41,0H521V23h.73C525,10.24,533.08.73,546.85.73V77.29a7.26,7.26,0,0,1-7.31,7.31v.74h36.21V84.6a7.33,7.33,0,0,1-7.32-7.31V.73c13.78,0,21.82,9.51,25.11,22.31h.74V0Z"/></svg>